<!DOCTYPE svg PUBLIC "-//W3C//DTD SVG 1.1//EN" "http://www.w3.org/Graphics/SVG/1.1/DTD/svg11.dtd">
<!-- Uploaded to: SVG Repo, www.svgrepo.com, Transformed by: SVG Repo Mixer Tools -->
<svg version="1.1" id="Layer_1" xmlns="http://www.w3.org/2000/svg" xmlns:xlink="http://www.w3.org/1999/xlink" width="256px" height="256px" viewBox="0 0 64 64" enable-background="new 0 0 64 64" xml:space="preserve" fill="#ffffff" stroke="#ffffff">
<g id="SVGRepo_bgCarrier" stroke-width="0"/>
<g id="SVGRepo_tracerCarrier" stroke-linecap="round" stroke-linejoin="round"/>
<g id="SVGRepo_iconCarrier"> <path fill="none" stroke="#ffffff" stroke-width="2.56" stroke-miterlimit="10" d="M55,40c4.565,0,8-3.435,8-8c0-4.565-3.435-9-8-9 c0-11.414-9.586-20-21-20C23.898,3,14.8,9.423,13,19c0,0-1.165,0-2,0C5.292,19,1,24.292,1,30s4.292,10,10,10H55z"/> <g> <line fill="none" stroke="#ffffff" stroke-width="2.56" stroke-miterlimit="10" x1="22" y1="46" x2="22" y2="60"/> <line fill="none" stroke="#ffffff" stroke-width="2.56" stroke-miterlimit="10" x1="12" y1="46" x2="12" y2="60"/> <line fill="none" stroke="#ffffff" stroke-width="2.56" stroke-miterlimit="10" x1="32" y1="46" x2="32" y2="60"/> <line fill="none" stroke="#ffffff" stroke-width="2.56" stroke-miterlimit="10" x1="42" y1="46" x2="42" y2="60"/> <line fill="none" stroke="#ffffff" stroke-width="2.56" stroke-miterlimit="10" x1="52" y1="46" x2="52" y2="60"/> </g> </g>
</svg>